<?xml version="1.0" encoding="utf-8"?>
<!-- Generator: Adobe Illustrator 16.0.0, SVG Export Plug-In . SVG Version: 6.00 Build 0)  -->
<!DOCTYPE svg PUBLIC "-//W3C//DTD SVG 1.1//EN" "http://www.w3.org/Graphics/SVG/1.1/DTD/svg11.dtd">
<svg version="1.1" id="Layer_1" xmlns="http://www.w3.org/2000/svg" xmlns:xlink="http://www.w3.org/1999/xlink" x="0px" y="0px"
	 width="453.187px" height="624.918px" viewBox="0 0 453.187 624.918" enable-background="new 0 0 453.187 624.918"
	 xml:space="preserve">
<g>
	<g>
		<defs>
			<rect id="SVGID_1_" x="64.089" y="457.846" width="327.035" height="167.072"/>
		</defs>
		<clipPath id="SVGID_2_">
			<use xlink:href="#SVGID_1_"  overflow="visible"/>
		</clipPath>
		<g clip-path="url(#SVGID_2_)">
			<defs>
				<rect id="SVGID_3_" x="64.089" y="507.084" width="327.035" height="117.834"/>
			</defs>
			<clipPath id="SVGID_4_">
				<use xlink:href="#SVGID_3_"  overflow="visible"/>
			</clipPath>
		</g>
		<g clip-path="url(#SVGID_2_)">
			<defs>
				<rect id="SVGID_5_" x="64.089" y="457.846" width="327.035" height="167.072"/>
			</defs>
			<clipPath id="SVGID_6_">
				<use xlink:href="#SVGID_5_"  overflow="visible"/>
			</clipPath>
			
				<line clip-path="url(#SVGID_6_)" fill="none" stroke="#7F4097" stroke-width="4.2657" stroke-miterlimit="25" x1="227.606" y1="157.827" x2="227.606" y2="508.324"/>
			<path clip-path="url(#SVGID_6_)" fill="none" stroke="#017262" stroke-width="4.2657" stroke-miterlimit="25" d="
				M220.497,508.324V227.5c0-7.853-6.366-14.219-14.219-14.219h-53.321"/>
			<path clip-path="url(#SVGID_6_)" fill="none" stroke="#1573BA" stroke-width="4.2657" stroke-miterlimit="10" d="
				M213.388,564.488V284.375c0-7.853-6.366-14.219-14.219-14.219h-53.321"/>
			<path clip-path="url(#SVGID_6_)" fill="none" stroke="#F48323" stroke-width="4.2657" stroke-miterlimit="25" d="
				M206.278,623.498V341.25c0-7.854-6.366-14.219-14.219-14.219h-53.321"/>
			<path clip-path="url(#SVGID_6_)" fill="none" stroke="#00AD9D" stroke-width="4.2657" stroke-miterlimit="25" d="
				M199.169,576.574V398.126c0-7.853-6.365-14.219-14.22-14.219h-39.102"/>
			<path clip-path="url(#SVGID_6_)" fill="none" stroke="#5C2947" stroke-width="4.2657" stroke-miterlimit="25" d="
				M234.716,506.902V211.858c0-7.853,6.365-14.219,14.219-14.219h39.812"/>
			<path clip-path="url(#SVGID_6_)" fill="none" stroke="#EA148D" stroke-width="4.2657" stroke-miterlimit="25" d="
				M241.825,565.199V270.156c0-7.853,6.366-14.219,14.219-14.219h54.032"/>
			<path clip-path="url(#SVGID_6_)" fill="none" stroke="#26BBB9" stroke-width="4.2657" stroke-miterlimit="25" d="
				M248.935,620.653V327.032c0-7.854,6.366-14.219,14.22-14.219h54.031"/>
			<path clip-path="url(#SVGID_6_)" fill="none" stroke="#7CC144" stroke-width="4.2657" stroke-miterlimit="25" d="
				M256.044,577.996V383.908c0-7.853,6.366-14.219,14.219-14.219h54.033"/>
		</g>
		<g clip-path="url(#SVGID_2_)">
			<defs>
				<rect id="SVGID_7_" x="152.946" y="457.847" width="149.299" height="43.545"/>
			</defs>
			<clipPath id="SVGID_8_">
				<use xlink:href="#SVGID_7_"  overflow="visible"/>
			</clipPath>
			<defs>
				<filter id="Adobe_OpacityMaskFilter" filterUnits="userSpaceOnUse" x="152.946" y="457.847" width="149.299" height="43.545">
					<feColorMatrix  type="matrix" values="1 0 0 0 0  0 1 0 0 0  0 0 1 0 0  0 0 0 1 0"/>
				</filter>
			</defs>
			<mask maskUnits="userSpaceOnUse" x="152.946" y="457.847" width="149.299" height="43.545" id="SVGID_9_">
				<g filter="url(#Adobe_OpacityMaskFilter)">
					
						<linearGradient id="SVGID_10_" gradientUnits="userSpaceOnUse" x1="-5.3716" y1="430.856" x2="-4.6602" y2="430.856" gradientTransform="matrix(0 -140.25 -140.25 0 60655.1406 -251.9761)">
						<stop  offset="0" style="stop-color:#FFFFFF"/>
						<stop  offset="0.4724" style="stop-color:#FFFFFF"/>
						<stop  offset="1" style="stop-color:#000000"/>
					</linearGradient>
					<rect x="152.946" y="457.847" clip-path="url(#SVGID_8_)" fill="url(#SVGID_10_)" width="149.299" height="43.545"/>
				</g>
			</mask>
			
				<linearGradient id="SVGID_11_" gradientUnits="userSpaceOnUse" x1="-5.3716" y1="430.856" x2="-4.6602" y2="430.856" gradientTransform="matrix(0 -140.25 -140.25 0 60655.1406 -251.9761)">
				<stop  offset="0" style="stop-color:#FFFFFF"/>
				<stop  offset="0.4724" style="stop-color:#FFFFFF"/>
				<stop  offset="1" style="stop-color:#FFFFFF"/>
			</linearGradient>
			
				<rect x="152.946" y="457.847" clip-path="url(#SVGID_8_)" mask="url(#SVGID_9_)" fill="url(#SVGID_11_)" width="149.299" height="43.545"/>
		</g>
		<g clip-path="url(#SVGID_2_)">
			<defs>
				<rect id="SVGID_12_" x="64.089" y="457.846" width="327.035" height="167.072"/>
			</defs>
			<clipPath id="SVGID_13_">
				<use xlink:href="#SVGID_12_"  overflow="visible"/>
			</clipPath>
			<path clip-path="url(#SVGID_13_)" fill="#2C292A" d="M340.646,609.544V468.133c0-5.123-4.158-9.316-9.242-9.316H122.386
				c-5.082,0-9.242,4.193-9.242,9.316v141.411H340.646z"/>
			<rect x="127.363" y="473.151" clip-path="url(#SVGID_13_)" fill="#404041" width="199.064" height="122.06"/>
			<g opacity="0.03" clip-path="url(#SVGID_13_)">
				<g>
					<defs>
						<rect id="SVGID_14_" x="113.144" y="458.817" width="116.274" height="150.728"/>
					</defs>
					<clipPath id="SVGID_15_">
						<use xlink:href="#SVGID_14_"  overflow="visible"/>
					</clipPath>
					<path clip-path="url(#SVGID_15_)" fill="#FFFFFF" d="M229.418,458.817H122.386c-5.082,0-9.242,4.193-9.242,9.316v141.411h9.395
						L229.418,458.817z"/>
				</g>
			</g>
			
				<rect x="127.363" y="473.151" clip-path="url(#SVGID_13_)" fill="none" stroke="#231F20" stroke-width="1.4219" stroke-miterlimit="10" width="199.064" height="122.06"/>
			<rect x="77.597" y="609.254" clip-path="url(#SVGID_13_)" fill="#929497" width="298.598" height="11.375"/>
			<polygon clip-path="url(#SVGID_13_)" fill="#6D6E70" points="340.646,623.498 113.144,623.498 77.597,620.629 376.194,620.629 
							"/>
			<path clip-path="url(#SVGID_13_)" fill="#6D6E70" d="M203.435,613.584h46.922c2.737,0,4.977-2.26,4.977-5.019h-56.875
				C198.458,611.325,200.697,613.584,203.435,613.584"/>
			<path clip-path="url(#SVGID_13_)" fill="none" stroke="#BBBDBF" stroke-width="0.7109" stroke-miterlimit="10" d="
				M376.194,608.987H255.333c0,3.009-2.239,5.268-4.977,5.268h-46.922c-2.737,0-4.977-2.259-4.977-5.017H77.597"/>
			<g opacity="0.97" clip-path="url(#SVGID_13_)">
				<g>
					<defs>
						<rect id="SVGID_16_" x="152.791" y="522.33" width="154.137" height="55.844"/>
					</defs>
					<clipPath id="SVGID_17_">
						<use xlink:href="#SVGID_16_"  overflow="visible"/>
					</clipPath>
				</g>
			</g>
			<path clip-path="url(#SVGID_13_)" fill="#FFFFFF" d="M154.241,510.936c0.147-0.357-0.023-0.771-0.389-0.917
				c-0.358-0.148-0.771,0.026-0.923,0.385c-0.149,0.357,0.022,0.764,0.381,0.912C153.677,511.465,154.091,511.294,154.241,510.936"
				/>
			<path clip-path="url(#SVGID_13_)" fill="#FFFFFF" d="M154.731,509.118c0.148-0.358-0.022-0.768-0.387-0.919
				c-0.359-0.145-0.776,0.029-0.923,0.385c-0.15,0.357,0.021,0.768,0.38,0.912C154.169,509.647,154.584,509.474,154.731,509.118"/>
			<path clip-path="url(#SVGID_13_)" fill="#FFFFFF" d="M155.425,508.502c0.365,0.149,0.779-0.021,0.929-0.378
				c0.148-0.355-0.022-0.771-0.388-0.918c-0.359-0.146-0.775,0.028-0.924,0.385C154.892,507.952,155.065,508.358,155.425,508.502"/>
			<path clip-path="url(#SVGID_13_)" fill="#FFFFFF" d="M157.22,509.101c0.364,0.147,0.779-0.021,0.929-0.379
				c0.149-0.354-0.022-0.77-0.387-0.917c-0.357-0.147-0.774,0.026-0.924,0.385C156.688,508.547,156.863,508.956,157.22,509.101"/>
			<path clip-path="url(#SVGID_13_)" fill="#FFFFFF" d="M165.177,510.936c0.157,0.357,0.571,0.525,0.931,0.373
				c0.361-0.146,0.531-0.555,0.383-0.91c-0.152-0.358-0.569-0.529-0.928-0.38C165.201,510.164,165.027,510.576,165.177,510.936"/>
			<path clip-path="url(#SVGID_13_)" fill="#FFFFFF" d="M165.61,509.496c0.363-0.146,0.535-0.555,0.383-0.913
				c-0.154-0.357-0.567-0.529-0.928-0.379c-0.363,0.147-0.531,0.556-0.384,0.917C164.833,509.479,165.248,509.647,165.61,509.496"/>
			<path clip-path="url(#SVGID_13_)" fill="#FFFFFF" d="M163.983,508.509c0.362-0.146,0.533-0.558,0.386-0.916
				c-0.151-0.358-0.568-0.528-0.931-0.383c-0.36,0.151-0.531,0.561-0.381,0.921C163.207,508.486,163.623,508.656,163.983,508.509"/>
			<path clip-path="url(#SVGID_13_)" fill="#FFFFFF" d="M162.044,508.993c0.359-0.146,0.531-0.559,0.383-0.911
				c-0.153-0.357-0.568-0.529-0.932-0.384c-0.358,0.152-0.529,0.561-0.381,0.924C161.263,508.973,161.681,509.143,162.044,508.993"
				/>
			<path clip-path="url(#SVGID_13_)" fill="#FFFFFF" d="M164.992,511.506c0.091,0.495,0.104,0.721-0.009,1.04
				c-0.163-0.158-0.308-0.449-0.426-0.891l-0.494,1.562c0.294-0.193,0.518-0.318,0.775-0.321c-0.464,0.962-1.035,1.204-1.402,1.135
				c-0.445-0.086-0.65-0.483-0.572-0.819c0.1-0.476,0.598-0.588,0.822-0.038c0.452-0.878-0.296-1.166-0.779-0.912
				c0.748-0.719,0.836-1.36,0.245-2.149c-0.833,0.621-0.846,1.239-0.484,2.114c-0.478-0.552-1.239-0.261-0.974,0.625
				c0.355-0.53,0.814-0.194,0.736,0.317c-0.061,0.441-0.658,0.792-1.397,0.718c-1.058-0.101-1.115-0.82-1.135-1.415
				c0.259-0.047,0.729,0.199,1.124,0.754l0.162-1.659c-0.439,0.436-0.836,0.522-1.272,0.53c0.148-0.442,0.823-1.188,0.823-1.188
				h-2.105c0,0,0.67,0.736,0.814,1.185c-0.438-0.014-0.832-0.099-1.266-0.544l0.147,1.662c0.399-0.553,0.866-0.789,1.126-0.743
				c-0.027,0.598-0.089,1.316-1.147,1.409c-0.739,0.066-1.329-0.293-1.392-0.736c-0.071-0.508,0.391-0.844,0.742-0.309
				c0.273-0.887-0.484-1.181-0.969-0.634c0.373-0.873,0.364-1.494-0.467-2.12c-0.598,0.78-0.513,1.429,0.227,2.156
				c-0.482-0.265-1.23,0.015-0.788,0.901c0.229-0.552,0.724-0.428,0.827,0.046c0.069,0.334-0.138,0.73-0.588,0.812
				c-0.365,0.066-0.934-0.183-1.388-1.146c0.257,0.005,0.481,0.132,0.771,0.33l-0.477-1.566c-0.119,0.438-0.274,0.727-0.438,0.884
				c-0.109-0.317-0.092-0.549,0.004-1.039l-1.01,0.349c0.523,0.703,1.056,1.689,1.473,3.417c1.292-0.212,3.497-0.341,4.834-0.336
				c1.333,0.007,3.538,0.154,4.826,0.382c0.436-1.728,0.976-2.705,1.506-3.403L164.992,511.506z"/>
			<path clip-path="url(#SVGID_13_)" fill="#FFFFFF" d="M178.278,514.528c-0.609,0.265-1.594,0.647-2.928,0.647
				c-3.094,0-4.37-2.186-4.37-3.975c0-2.08,1.582-4.115,4.322-4.115c1.124,0,1.957,0.313,2.812,0.67v1.156
				c-1.312-0.752-2.388-0.821-2.833-0.821c-1.595,0-3.104,1.178-3.104,3.041c0,1.745,1.275,3.05,3.209,3.05
				c0.584,0,0.983-0.104,1.744-0.347v-1.64h-1.534v-0.994h2.683V514.528z"/>
			<path clip-path="url(#SVGID_13_)" fill="#FFFFFF" d="M187.977,511.119c0,2.265-1.755,4.057-4.367,4.057
				c-2.505,0-4.218-1.827-4.218-4.021c0-2.092,1.547-4.069,4.277-4.069C186.326,507.085,187.977,509.004,187.977,511.119
				 M180.576,511.155c0,1.79,1.429,2.968,3.104,2.968c0.855,0,1.782-0.347,2.332-0.937c0.503-0.543,0.798-1.398,0.798-2.08
				c0-1.306-1.009-2.958-3.095-2.958C181.479,508.148,180.576,509.836,180.576,511.155"/>
			<polygon clip-path="url(#SVGID_13_)" fill="#FFFFFF" points="191.734,515.117 191.479,515.117 188.034,507.187 189.182,507.187 
				191.584,512.726 193.972,507.187 195.108,507.187 			"/>
			<path clip-path="url(#SVGID_13_)" fill="#FFFFFF" d="M205.502,511.662c0,0.764,0,1.86-0.903,2.656
				c-0.714,0.628-1.604,0.857-2.518,0.857c-1.125,0-2.365-0.383-2.997-1.374c-0.447-0.695-0.447-1.606-0.447-2.14v-4.472h1.149
				v4.472c0,1.041,0.093,1.444,0.504,1.849c0.338,0.347,0.864,0.659,1.791,0.659c1.289,0,1.85-0.659,2.062-1.039
				c0.151-0.277,0.224-0.695,0.224-1.469v-4.472h1.135V511.662z"/>
			<polygon clip-path="url(#SVGID_13_)" fill="#FFFFFF" points="209.126,510.921 213.448,515.071 211.879,515.071 207.805,511.175 
				207.805,515.071 206.644,515.071 206.644,507.187 207.805,507.187 207.805,510.795 211.165,507.187 212.593,507.187 			"/>
			<path clip-path="url(#SVGID_13_)" fill="#FFFFFF" d="M197.004,514.417c0,0.477-0.397,0.853-0.882,0.853
				c-0.466,0-0.863-0.376-0.863-0.853c0-0.507,0.425-0.855,0.863-0.855C196.563,513.561,197.004,513.91,197.004,514.417"/>
			<path clip-path="url(#SVGID_13_)" fill="#FFFFFF" d="M159.906,507.35c0.036-0.03,0.069-0.061,0.096-0.099l0.949,0.494v-1.347
				l-0.964,0.317c-0.027-0.037-0.06-0.069-0.098-0.094l0.385-1.173h-0.656h-0.655l0.385,1.173c-0.037,0.024-0.07,0.057-0.099,0.094
				l-0.963-0.317v1.347l0.947-0.494c0.026,0.038,0.06,0.068,0.096,0.099c-0.108,0.406-0.341,1.028-0.489,1.38
				c-0.19,0.456,0.026,0.98,0.489,1.168c0.096,0.039,0.193,0.058,0.289,0.063c0.098-0.006,0.194-0.024,0.288-0.063
				c0.463-0.188,0.682-0.712,0.491-1.168C160.249,508.378,160.016,507.756,159.906,507.35"/>
		</g>
	</g>
	<g>
		<path fill="#FFFFFF" d="M154.394,526.493h3.666c0.491,0,0.936,0.082,1.335,0.244c0.398,0.163,0.739,0.39,1.023,0.679
			s0.503,0.635,0.656,1.038s0.229,0.846,0.229,1.327c0,0.486-0.083,0.93-0.251,1.33c-0.168,0.401-0.402,0.745-0.704,1.032
			c-0.301,0.286-0.659,0.509-1.075,0.667c-0.415,0.157-0.868,0.236-1.359,0.236h-2.238v3.9h-1.282V526.493z M159.94,529.751
			c0-0.306-0.048-0.591-0.146-0.853c-0.098-0.263-0.238-0.49-0.423-0.682c-0.185-0.192-0.409-0.343-0.674-0.452
			c-0.266-0.109-0.565-0.164-0.9-0.164h-2.122v4.345h2.122c0.335,0,0.635-0.054,0.9-0.16c0.265-0.107,0.489-0.254,0.674-0.441
			c0.185-0.187,0.325-0.41,0.423-0.671c0.098-0.26,0.146-0.543,0.146-0.849V529.751z"/>
		<path fill="#FFFFFF" d="M163.604,533.601c0.023,0.35,0.095,0.673,0.211,0.969c0.117,0.297,0.275,0.554,0.478,0.77
			c0.201,0.216,0.439,0.384,0.715,0.503c0.274,0.119,0.579,0.179,0.914,0.179c0.413,0,0.776-0.069,1.09-0.208
			s0.602-0.312,0.864-0.521l0.627,0.883c-0.335,0.267-0.723,0.487-1.163,0.659c-0.439,0.173-0.932,0.259-1.476,0.259
			c-0.54,0-1.028-0.096-1.466-0.288c-0.438-0.191-0.811-0.459-1.119-0.802s-0.545-0.751-0.71-1.225
			c-0.166-0.474-0.248-0.99-0.248-1.549c0-0.568,0.081-1.09,0.244-1.563c0.163-0.475,0.393-0.883,0.688-1.225
			c0.297-0.343,0.651-0.61,1.064-0.803c0.413-0.191,0.872-0.287,1.378-0.287c0.491,0,0.934,0.096,1.327,0.287
			c0.394,0.192,0.729,0.46,1.006,0.803c0.276,0.342,0.489,0.75,0.638,1.225c0.148,0.474,0.223,0.99,0.223,1.549v0.387H163.604z
			 M165.651,530.422c-0.311,0-0.588,0.061-0.831,0.183c-0.243,0.121-0.45,0.284-0.623,0.488s-0.309,0.438-0.408,0.703
			s-0.157,0.538-0.171,0.82h3.943c-0.01-0.287-0.06-0.562-0.149-0.827c-0.09-0.266-0.216-0.499-0.379-0.7
			c-0.163-0.202-0.359-0.363-0.591-0.484C166.212,530.483,165.948,530.422,165.651,530.422z"/>
		<path fill="#FFFFFF" d="M174.369,530.59h-0.196c-0.316,0-0.617,0.036-0.904,0.109c-0.287,0.072-0.539,0.204-0.758,0.394
			s-0.394,0.448-0.525,0.776c-0.131,0.328-0.196,0.747-0.196,1.257v3.82h-1.225v-7.45h1.225v1.181
			c0.092-0.219,0.216-0.41,0.371-0.576c0.156-0.165,0.332-0.302,0.529-0.411c0.196-0.109,0.408-0.191,0.634-0.244
			c0.226-0.054,0.456-0.081,0.689-0.081h0.356V530.59z"/>
		<path fill="#FFFFFF" d="M177.855,529.497h1.479v1.079h-1.479v6.371h-1.225v-6.371h-1.239v-1.079h1.239v-1.386
			c0-0.32,0.051-0.593,0.152-0.816c0.103-0.223,0.244-0.404,0.427-0.543s0.398-0.237,0.648-0.299
			c0.251-0.061,0.524-0.091,0.82-0.091c0.302,0,0.552,0.014,0.751,0.04s0.348,0.047,0.445,0.062l-0.096,1.05
			c-0.072-0.005-0.156-0.012-0.251-0.021s-0.192-0.017-0.292-0.021s-0.195-0.01-0.288-0.015c-0.092-0.005-0.167-0.008-0.226-0.008
			c-0.175,0-0.318,0.025-0.43,0.077c-0.112,0.051-0.201,0.117-0.267,0.2s-0.11,0.178-0.135,0.284
			c-0.024,0.107-0.036,0.219-0.036,0.335V529.497z"/>
		<path fill="#FFFFFF" d="M183.646,529.351c0.515,0,0.984,0.096,1.406,0.287c0.423,0.192,0.784,0.46,1.083,0.803
			c0.299,0.342,0.531,0.75,0.696,1.225c0.165,0.474,0.248,0.995,0.248,1.563c0,0.559-0.083,1.075-0.248,1.549
			s-0.397,0.882-0.696,1.225s-0.66,0.61-1.083,0.802c-0.422,0.192-0.892,0.288-1.406,0.288c-0.516,0-0.983-0.096-1.403-0.288
			c-0.421-0.191-0.781-0.459-1.083-0.802c-0.301-0.343-0.534-0.751-0.699-1.225c-0.166-0.474-0.248-0.99-0.248-1.549
			c0-0.568,0.082-1.09,0.248-1.563c0.165-0.475,0.398-0.883,0.699-1.225c0.302-0.343,0.662-0.61,1.083-0.803
			C182.663,529.447,183.131,529.351,183.646,529.351z M183.646,536.021c0.354,0,0.667-0.074,0.937-0.223
			c0.27-0.147,0.496-0.349,0.678-0.602c0.183-0.252,0.319-0.545,0.412-0.878c0.092-0.333,0.139-0.682,0.139-1.046v-0.088
			c0-0.374-0.047-0.729-0.139-1.064c-0.093-0.335-0.229-0.628-0.412-0.878c-0.182-0.251-0.408-0.45-0.678-0.598
			c-0.27-0.148-0.582-0.223-0.937-0.223c-0.355,0-0.667,0.074-0.937,0.223c-0.271,0.147-0.496,0.347-0.679,0.598
			c-0.182,0.25-0.319,0.543-0.411,0.878c-0.093,0.336-0.139,0.69-0.139,1.064v0.088c0,0.364,0.046,0.713,0.139,1.046
			c0.092,0.333,0.229,0.626,0.411,0.878c0.183,0.253,0.408,0.454,0.679,0.602C182.979,535.947,183.291,536.021,183.646,536.021z"/>
		<path fill="#FFFFFF" d="M192.626,530.59h-0.196c-0.316,0-0.617,0.036-0.904,0.109c-0.287,0.072-0.539,0.204-0.758,0.394
			s-0.394,0.448-0.525,0.776c-0.131,0.328-0.196,0.747-0.196,1.257v3.82h-1.225v-7.45h1.225v1.181
			c0.092-0.219,0.216-0.41,0.371-0.576c0.156-0.165,0.332-0.302,0.529-0.411c0.196-0.109,0.408-0.191,0.634-0.244
			c0.226-0.054,0.456-0.081,0.689-0.081h0.356V530.59z"/>
		<path fill="#FFFFFF" d="M199.587,536.947h-1.225v-4.688c0-0.33-0.04-0.609-0.121-0.838c-0.08-0.229-0.187-0.413-0.32-0.555
			c-0.134-0.141-0.292-0.243-0.474-0.306c-0.183-0.063-0.376-0.095-0.58-0.095s-0.404,0.04-0.602,0.12
			c-0.196,0.08-0.371,0.205-0.524,0.375c-0.153,0.171-0.277,0.386-0.372,0.646s-0.142,0.572-0.142,0.937v4.403h-1.225v-7.45h1.225
			v0.853c0.248-0.345,0.535-0.598,0.863-0.758s0.691-0.24,1.09-0.24c0.165,0,0.346,0.022,0.54,0.068
			c0.194,0.047,0.385,0.118,0.572,0.216c0.187,0.097,0.359,0.225,0.518,0.383c0.157,0.157,0.285,0.349,0.383,0.572
			c0.136-0.229,0.292-0.422,0.47-0.58s0.364-0.285,0.562-0.383c0.196-0.097,0.4-0.167,0.612-0.211
			c0.211-0.044,0.422-0.065,0.631-0.065c0.403,0,0.76,0.067,1.071,0.204c0.311,0.136,0.573,0.318,0.787,0.546
			c0.214,0.229,0.376,0.494,0.485,0.795c0.109,0.302,0.164,0.617,0.164,0.948v5.103h-1.225v-4.688c0-0.33-0.042-0.609-0.124-0.838
			c-0.083-0.229-0.194-0.413-0.336-0.555c-0.141-0.141-0.304-0.243-0.488-0.306c-0.185-0.063-0.377-0.095-0.576-0.095
			c-0.204,0-0.404,0.04-0.602,0.12c-0.196,0.08-0.371,0.205-0.524,0.375c-0.153,0.171-0.277,0.386-0.372,0.646
			s-0.142,0.572-0.142,0.937V536.947z"/>
		<path fill="#FFFFFF" d="M210.297,536.204c-0.219,0.252-0.515,0.464-0.886,0.634c-0.372,0.17-0.809,0.255-1.309,0.255
			c-0.369,0-0.712-0.052-1.028-0.156c-0.315-0.104-0.59-0.254-0.823-0.448s-0.416-0.431-0.547-0.707
			c-0.132-0.277-0.197-0.591-0.197-0.94c0-0.292,0.048-0.558,0.143-0.799c0.095-0.24,0.229-0.45,0.4-0.63
			c0.173-0.181,0.381-0.327,0.624-0.441c0.242-0.114,0.515-0.193,0.816-0.237l2.632-0.357v-0.474c0-0.281-0.044-0.519-0.132-0.711
			c-0.087-0.191-0.205-0.344-0.354-0.455c-0.148-0.112-0.323-0.192-0.524-0.24c-0.202-0.049-0.42-0.073-0.652-0.073
			c-0.419,0-0.809,0.059-1.171,0.175c-0.361,0.116-0.688,0.253-0.98,0.408l-0.459-0.97c0.428-0.243,0.876-0.418,1.345-0.524
			c0.47-0.107,0.933-0.16,1.389-0.16c0.909,0,1.597,0.205,2.063,0.615c0.467,0.411,0.7,1.01,0.7,1.797v3.434
			c0,0.248,0.048,0.456,0.146,0.624c0.097,0.167,0.253,0.3,0.467,0.397l-0.692,0.874c-0.233-0.058-0.435-0.161-0.602-0.31
			c-0.168-0.148-0.286-0.327-0.354-0.536L210.297,536.204z M208.117,533.629c-0.204,0.029-0.391,0.071-0.558,0.124
			c-0.168,0.054-0.311,0.126-0.427,0.216s-0.208,0.2-0.273,0.331c-0.065,0.132-0.099,0.292-0.099,0.481
			c0,0.219,0.041,0.413,0.124,0.583s0.194,0.313,0.336,0.431c0.141,0.116,0.305,0.205,0.491,0.266
			c0.188,0.061,0.383,0.091,0.587,0.091c0.229,0,0.452-0.031,0.671-0.095c0.219-0.062,0.413-0.154,0.583-0.273
			s0.308-0.264,0.412-0.434s0.157-0.364,0.157-0.583v-1.437L208.117,533.629z"/>
		<path fill="#FFFFFF" d="M213.483,529.497h1.225v0.853c0.252-0.345,0.564-0.598,0.937-0.758s0.786-0.24,1.243-0.24
			c0.413,0,0.774,0.067,1.086,0.204c0.311,0.136,0.571,0.32,0.78,0.554s0.365,0.503,0.47,0.809c0.104,0.307,0.157,0.63,0.157,0.97
			v5.06h-1.225v-4.673c0-0.325-0.04-0.604-0.121-0.835c-0.08-0.23-0.189-0.418-0.327-0.562c-0.139-0.143-0.302-0.247-0.489-0.313
			c-0.187-0.065-0.388-0.098-0.601-0.098c-0.233,0-0.464,0.042-0.689,0.127s-0.43,0.213-0.612,0.383s-0.329,0.384-0.441,0.642
			c-0.111,0.258-0.167,0.562-0.167,0.911v4.418h-1.225V529.497z"/>
		<path fill="#FFFFFF" d="M222.32,533.258c0,0.374,0.046,0.729,0.139,1.064c0.092,0.335,0.228,0.628,0.408,0.878
			c0.18,0.251,0.404,0.45,0.674,0.598c0.27,0.148,0.584,0.223,0.944,0.223c0.233,0,0.448-0.033,0.645-0.099
			c0.197-0.065,0.375-0.154,0.532-0.266c0.158-0.112,0.299-0.244,0.423-0.397s0.232-0.317,0.325-0.492l1.021,0.583
			c-0.127,0.263-0.288,0.502-0.485,0.718c-0.196,0.217-0.422,0.4-0.674,0.551c-0.253,0.15-0.53,0.268-0.831,0.35
			c-0.302,0.083-0.62,0.124-0.955,0.124c-0.516,0-0.983-0.096-1.403-0.288c-0.421-0.191-0.781-0.459-1.083-0.802
			c-0.301-0.343-0.534-0.749-0.699-1.221c-0.166-0.472-0.248-0.989-0.248-1.553c0-0.568,0.082-1.09,0.248-1.563
			c0.165-0.475,0.398-0.883,0.699-1.225c0.302-0.343,0.662-0.61,1.083-0.803c0.42-0.191,0.888-0.287,1.403-0.287
			c0.335,0,0.653,0.041,0.955,0.123c0.301,0.083,0.578,0.2,0.831,0.351c0.252,0.15,0.478,0.334,0.674,0.55
			c0.197,0.217,0.358,0.456,0.485,0.719l-1.021,0.583c-0.093-0.175-0.201-0.339-0.325-0.492s-0.265-0.285-0.423-0.397
			c-0.157-0.111-0.335-0.2-0.532-0.266c-0.196-0.066-0.411-0.099-0.645-0.099c-0.36,0-0.675,0.074-0.944,0.223
			c-0.27,0.147-0.494,0.347-0.674,0.598c-0.181,0.25-0.316,0.543-0.408,0.878c-0.093,0.336-0.139,0.69-0.139,1.064V533.258z"/>
		<path fill="#FFFFFF" d="M229.8,533.601c0.023,0.35,0.095,0.673,0.211,0.969c0.117,0.297,0.275,0.554,0.478,0.77
			c0.201,0.216,0.439,0.384,0.715,0.503c0.274,0.119,0.579,0.179,0.914,0.179c0.413,0,0.776-0.069,1.09-0.208
			s0.602-0.312,0.864-0.521l0.627,0.883c-0.335,0.267-0.723,0.487-1.163,0.659c-0.439,0.173-0.932,0.259-1.476,0.259
			c-0.54,0-1.028-0.096-1.466-0.288c-0.438-0.191-0.811-0.459-1.119-0.802s-0.545-0.751-0.71-1.225
			c-0.166-0.474-0.248-0.99-0.248-1.549c0-0.568,0.081-1.09,0.244-1.563c0.163-0.475,0.393-0.883,0.688-1.225
			c0.297-0.343,0.651-0.61,1.064-0.803c0.413-0.191,0.872-0.287,1.378-0.287c0.491,0,0.934,0.096,1.327,0.287
			c0.394,0.192,0.729,0.46,1.006,0.803c0.276,0.342,0.489,0.75,0.638,1.225c0.148,0.474,0.223,0.99,0.223,1.549v0.387H229.8z
			 M231.848,530.422c-0.311,0-0.588,0.061-0.831,0.183c-0.243,0.121-0.45,0.284-0.623,0.488s-0.309,0.438-0.408,0.703
			s-0.157,0.538-0.171,0.82h3.943c-0.01-0.287-0.06-0.562-0.149-0.827c-0.09-0.266-0.216-0.499-0.379-0.7
			c-0.163-0.202-0.359-0.363-0.591-0.484C232.408,530.483,232.145,530.422,231.848,530.422z"/>
		<path fill="#FFFFFF" d="M240.094,526.493h3.666c0.491,0,0.936,0.082,1.335,0.244c0.398,0.163,0.739,0.39,1.023,0.679
			s0.503,0.635,0.656,1.038s0.229,0.846,0.229,1.327c0,0.486-0.083,0.93-0.251,1.33c-0.168,0.401-0.402,0.745-0.704,1.032
			c-0.301,0.286-0.659,0.509-1.075,0.667c-0.415,0.157-0.868,0.236-1.359,0.236h-2.238v3.9h-1.282V526.493z M245.641,529.751
			c0-0.306-0.048-0.591-0.146-0.853c-0.098-0.263-0.238-0.49-0.423-0.682c-0.185-0.192-0.409-0.343-0.674-0.452
			c-0.266-0.109-0.565-0.164-0.9-0.164h-2.122v4.345h2.122c0.335,0,0.635-0.054,0.9-0.16c0.265-0.107,0.489-0.254,0.674-0.441
			c0.185-0.187,0.325-0.41,0.423-0.671c0.098-0.26,0.146-0.543,0.146-0.849V529.751z"/>
		<path fill="#FFFFFF" d="M248.525,526.493h1.225v8.785c0,0.121,0.012,0.229,0.033,0.32c0.021,0.093,0.06,0.17,0.113,0.233
			c0.053,0.063,0.127,0.11,0.222,0.142c0.095,0.032,0.213,0.048,0.354,0.048c0.156,0,0.297-0.005,0.423-0.015
			c0.127-0.01,0.238-0.02,0.336-0.029l0.124,1.028c-0.142,0.015-0.282,0.029-0.423,0.044c-0.122,0.009-0.255,0.019-0.401,0.028
			c-0.146,0.01-0.284,0.015-0.415,0.015c-0.219,0-0.426-0.025-0.62-0.076s-0.363-0.135-0.507-0.252
			c-0.143-0.116-0.256-0.267-0.339-0.451c-0.082-0.186-0.124-0.411-0.124-0.679V526.493z"/>
		<path fill="#FFFFFF" d="M256.959,536.204c-0.219,0.252-0.515,0.464-0.886,0.634c-0.372,0.17-0.809,0.255-1.309,0.255
			c-0.369,0-0.712-0.052-1.028-0.156c-0.315-0.104-0.59-0.254-0.823-0.448s-0.416-0.431-0.547-0.707
			c-0.132-0.277-0.197-0.591-0.197-0.94c0-0.292,0.048-0.558,0.143-0.799c0.095-0.24,0.229-0.45,0.4-0.63
			c0.173-0.181,0.381-0.327,0.624-0.441c0.242-0.114,0.515-0.193,0.816-0.237l2.632-0.357v-0.474c0-0.281-0.044-0.519-0.132-0.711
			c-0.087-0.191-0.205-0.344-0.354-0.455c-0.148-0.112-0.323-0.192-0.524-0.24c-0.202-0.049-0.42-0.073-0.652-0.073
			c-0.419,0-0.809,0.059-1.171,0.175c-0.361,0.116-0.688,0.253-0.98,0.408l-0.459-0.97c0.428-0.243,0.876-0.418,1.345-0.524
			c0.47-0.107,0.933-0.16,1.389-0.16c0.909,0,1.597,0.205,2.063,0.615c0.467,0.411,0.7,1.01,0.7,1.797v3.434
			c0,0.248,0.048,0.456,0.146,0.624c0.097,0.167,0.253,0.3,0.467,0.397l-0.692,0.874c-0.233-0.058-0.435-0.161-0.602-0.31
			c-0.168-0.148-0.286-0.327-0.354-0.536L256.959,536.204z M254.779,533.629c-0.204,0.029-0.391,0.071-0.558,0.124
			c-0.168,0.054-0.311,0.126-0.427,0.216s-0.208,0.2-0.273,0.331c-0.065,0.132-0.099,0.292-0.099,0.481
			c0,0.219,0.041,0.413,0.124,0.583s0.194,0.313,0.336,0.431c0.141,0.116,0.305,0.205,0.491,0.266
			c0.188,0.061,0.383,0.091,0.587,0.091c0.229,0,0.452-0.031,0.671-0.095c0.219-0.062,0.413-0.154,0.583-0.273
			s0.308-0.264,0.412-0.434s0.157-0.364,0.157-0.583v-1.437L254.779,533.629z"/>
		<path fill="#FFFFFF" d="M261.992,535.095c0,0.126,0.009,0.244,0.025,0.354c0.018,0.109,0.059,0.205,0.124,0.288
			c0.066,0.083,0.162,0.148,0.288,0.196c0.127,0.049,0.299,0.073,0.518,0.073c0.059,0,0.128-0.002,0.208-0.007
			s0.164-0.012,0.252-0.019c0.087-0.008,0.172-0.017,0.255-0.029c0.082-0.012,0.153-0.023,0.211-0.033l0.132,1.072
			c-0.142,0.02-0.287,0.036-0.438,0.051c-0.127,0.015-0.268,0.026-0.423,0.036c-0.156,0.01-0.312,0.015-0.467,0.015
			c-0.297,0-0.562-0.03-0.798-0.091c-0.236-0.061-0.437-0.159-0.602-0.295c-0.165-0.137-0.292-0.315-0.379-0.536
			c-0.088-0.221-0.132-0.489-0.132-0.806v-4.789h-1.406v-1.079h1.406v-2.435l1.225-0.431v2.865h2.07v1.079h-2.07V535.095z"/>
		<path fill="#FFFFFF" d="M267.583,529.497h1.479v1.079h-1.479v6.371h-1.225v-6.371h-1.239v-1.079h1.239v-1.386
			c0-0.32,0.051-0.593,0.152-0.816c0.103-0.223,0.244-0.404,0.427-0.543s0.398-0.237,0.648-0.299
			c0.251-0.061,0.524-0.091,0.82-0.091c0.302,0,0.552,0.014,0.751,0.04s0.348,0.047,0.445,0.062l-0.096,1.05
			c-0.072-0.005-0.156-0.012-0.251-0.021s-0.192-0.017-0.292-0.021s-0.195-0.01-0.288-0.015c-0.092-0.005-0.167-0.008-0.226-0.008
			c-0.175,0-0.318,0.025-0.43,0.077c-0.112,0.051-0.201,0.117-0.267,0.2s-0.11,0.178-0.135,0.284
			c-0.024,0.107-0.036,0.219-0.036,0.335V529.497z"/>
		<path fill="#FFFFFF" d="M273.373,529.351c0.515,0,0.984,0.096,1.406,0.287c0.423,0.192,0.784,0.46,1.083,0.803
			c0.299,0.342,0.531,0.75,0.696,1.225c0.165,0.474,0.248,0.995,0.248,1.563c0,0.559-0.083,1.075-0.248,1.549
			s-0.397,0.882-0.696,1.225s-0.66,0.61-1.083,0.802c-0.422,0.192-0.892,0.288-1.406,0.288c-0.516,0-0.983-0.096-1.403-0.288
			c-0.421-0.191-0.781-0.459-1.083-0.802c-0.301-0.343-0.534-0.751-0.699-1.225c-0.166-0.474-0.248-0.99-0.248-1.549
			c0-0.568,0.082-1.09,0.248-1.563c0.165-0.475,0.398-0.883,0.699-1.225c0.302-0.343,0.662-0.61,1.083-0.803
			C272.39,529.447,272.857,529.351,273.373,529.351z M273.373,536.021c0.354,0,0.667-0.074,0.937-0.223
			c0.27-0.147,0.496-0.349,0.678-0.602c0.183-0.252,0.319-0.545,0.412-0.878c0.092-0.333,0.139-0.682,0.139-1.046v-0.088
			c0-0.374-0.047-0.729-0.139-1.064c-0.093-0.335-0.229-0.628-0.412-0.878c-0.182-0.251-0.408-0.45-0.678-0.598
			c-0.27-0.148-0.582-0.223-0.937-0.223c-0.355,0-0.667,0.074-0.937,0.223c-0.271,0.147-0.496,0.347-0.679,0.598
			c-0.182,0.25-0.319,0.543-0.411,0.878c-0.093,0.336-0.139,0.69-0.139,1.064v0.088c0,0.364,0.046,0.713,0.139,1.046
			c0.092,0.333,0.229,0.626,0.411,0.878c0.183,0.253,0.408,0.454,0.679,0.602C272.706,535.947,273.018,536.021,273.373,536.021z"/>
		<path fill="#FFFFFF" d="M282.353,530.59h-0.196c-0.316,0-0.617,0.036-0.904,0.109c-0.287,0.072-0.539,0.204-0.758,0.394
			s-0.394,0.448-0.525,0.776c-0.131,0.328-0.196,0.747-0.196,1.257v3.82h-1.225v-7.45h1.225v1.181
			c0.092-0.219,0.216-0.41,0.371-0.576c0.156-0.165,0.332-0.302,0.529-0.411c0.196-0.109,0.408-0.191,0.634-0.244
			c0.226-0.054,0.456-0.081,0.689-0.081h0.356V530.59z"/>
		<path fill="#FFFFFF" d="M289.314,536.947h-1.225v-4.688c0-0.33-0.04-0.609-0.121-0.838c-0.08-0.229-0.187-0.413-0.32-0.555
			c-0.134-0.141-0.292-0.243-0.474-0.306c-0.183-0.063-0.376-0.095-0.58-0.095s-0.404,0.04-0.602,0.12
			c-0.196,0.08-0.371,0.205-0.524,0.375c-0.153,0.171-0.277,0.386-0.372,0.646s-0.142,0.572-0.142,0.937v4.403h-1.225v-7.45h1.225
			v0.853c0.248-0.345,0.535-0.598,0.863-0.758s0.691-0.24,1.09-0.24c0.165,0,0.346,0.022,0.54,0.068
			c0.194,0.047,0.385,0.118,0.572,0.216c0.187,0.097,0.359,0.225,0.518,0.383c0.157,0.157,0.285,0.349,0.383,0.572
			c0.136-0.229,0.292-0.422,0.47-0.58s0.364-0.285,0.562-0.383c0.196-0.097,0.4-0.167,0.612-0.211
			c0.211-0.044,0.422-0.065,0.631-0.065c0.403,0,0.76,0.067,1.071,0.204c0.311,0.136,0.573,0.318,0.787,0.546
			c0.214,0.229,0.376,0.494,0.485,0.795c0.109,0.302,0.164,0.617,0.164,0.948v5.103h-1.225v-4.688c0-0.33-0.042-0.609-0.124-0.838
			c-0.083-0.229-0.194-0.413-0.336-0.555c-0.141-0.141-0.304-0.243-0.488-0.306c-0.185-0.063-0.377-0.095-0.576-0.095
			c-0.204,0-0.404,0.04-0.602,0.12c-0.196,0.08-0.371,0.205-0.524,0.375c-0.153,0.171-0.277,0.386-0.372,0.646
			s-0.142,0.572-0.142,0.937V536.947z"/>
	</g>
	<path opacity="0.25" fill="#95CFCA" d="M435.778,207.042C435.778,92.697,343.081,0,228.736,0
		C114.391,0,21.694,92.697,21.694,207.042c0,98.998,69.482,181.765,162.34,202.202l18.264,14.078l26.438,20.378l26.438-20.378
		l18.265-14.078C366.296,388.807,435.778,306.041,435.778,207.042z"/>
	
		<linearGradient id="SVGID_18_" gradientUnits="userSpaceOnUse" x1="399.1924" y1="692.603" x2="399.1924" y2="652.4038" gradientTransform="matrix(0.9532 0.3025 -0.3025 0.9532 153.3294 -385.2554)">
		<stop  offset="0" style="stop-color:#8F288B"/>
		<stop  offset="1" style="stop-color:#AA5FA5"/>
	</linearGradient>
	<circle fill="url(#SVGID_18_)" cx="330.409" cy="376.531" r="20.1"/>
	
		<linearGradient id="SVGID_19_" gradientUnits="userSpaceOnUse" x1="307.2256" y1="748.0083" x2="307.2256" y2="727.2515" gradientTransform="matrix(0.9532 0.3025 -0.3025 0.9532 153.3294 -385.2554)">
		<stop  offset="0" style="stop-color:#8F288B"/>
		<stop  offset="1" style="stop-color:#AA5FA5"/>
	</linearGradient>
	<circle fill="url(#SVGID_19_)" cx="223.045" cy="410.79" r="10.38"/>
	<circle fill="#D33783" cx="405.216" cy="233.765" r="10.966"/>
	
		<linearGradient id="SVGID_20_" gradientUnits="userSpaceOnUse" x1="257.3486" y1="751.4282" x2="257.3486" y2="717.1978" gradientTransform="matrix(0.9532 0.3025 -0.3025 0.9532 153.3294 -385.2554)">
		<stop  offset="0" style="stop-color:#DE322B"/>
		<stop  offset="1" style="stop-color:#E76464"/>
	</linearGradient>
	<circle fill="url(#SVGID_20_)" cx="176.505" cy="392.54" r="17.115"/>
	
		<linearGradient id="SVGID_21_" gradientUnits="userSpaceOnUse" x1="335.8428" y1="713.9292" x2="335.8428" y2="675.5972" gradientTransform="matrix(0.9532 0.3025 -0.3025 0.9532 153.3294 -385.2554)">
		<stop  offset="0" style="stop-color:#DE322B"/>
		<stop  offset="1" style="stop-color:#E76464"/>
	</linearGradient>
	<circle fill="url(#SVGID_21_)" cx="263.29" cy="378.587" r="19.166"/>
	
		<linearGradient id="SVGID_22_" gradientUnits="userSpaceOnUse" x1="145.8198" y1="690.4253" x2="145.8198" y2="658.3442" gradientTransform="matrix(0.9532 0.3025 -0.3025 0.9532 153.3294 -385.2554)">
		<stop  offset="0" style="stop-color:#2D8ACA"/>
		<stop  offset="1" style="stop-color:#61A7D6"/>
	</linearGradient>
	<path fill="url(#SVGID_22_)" d="M103.613,306.531c-2.68,8.444-11.698,13.117-20.141,10.438
		c-8.444-2.68-13.118-11.699-10.438-20.142c2.679-8.444,11.697-13.117,20.143-10.438
		C101.618,289.069,106.292,298.086,103.613,306.531z"/>
	<g>
		<rect x="376.746" y="275.37" fill="#2D368E" width="13.858" height="60.115"/>
		<rect x="360.403" y="260.78" fill="#2D368E" width="13.858" height="74.705"/>
		<rect x="344.063" y="252.024" fill="#2D368E" width="13.857" height="83.461"/>
		<rect x="327.722" y="199.35" fill="#F27921" width="13.857" height="136.135"/>
		<rect x="311.379" y="225.762" fill="#2D368E" width="13.857" height="109.723"/>
		<rect x="295.038" y="246.772" fill="#2D368E" width="13.857" height="88.712"/>
		<rect x="278.696" y="264.865" fill="#2D368E" width="13.857" height="70.62"/>
		<rect x="262.354" y="275.37" fill="#2D368E" width="13.858" height="60.115"/>
		<rect x="246.013" y="256.693" fill="#2D368E" width="13.858" height="78.792"/>
		<rect x="229.671" y="252.024" fill="#2D368E" width="13.857" height="83.461"/>
		<rect x="213.33" y="260.78" fill="#2D368E" width="13.857" height="74.705"/>
		<rect x="196.988" y="232.765" fill="#2D368E" width="13.857" height="102.72"/>
		<rect x="180.646" y="300.174" fill="#2D368E" width="13.859" height="35.311"/>
		<rect x="164.304" y="310.971" fill="#2D368E" width="13.857" height="24.514"/>
		<rect x="147.963" y="335.485" fill="#6269AB" width="13.858" height="19.843"/>
		<rect x="131.622" y="335.485" fill="#6269AB" width="13.857" height="30.348"/>
		<rect x="115.28" y="335.485" fill="#6269AB" width="13.858" height="19.843"/>
		<rect x="98.938" y="335.485" fill="#6269AB" width="13.857" height="40.854"/>
		<rect x="82.596" y="335.485" fill="#6269AB" width="13.857" height="22.761"/>
	</g>
	
		<linearGradient id="SVGID_23_" gradientUnits="userSpaceOnUse" x1="431.9385" y1="645.0405" x2="431.9385" y2="589.3354" gradientTransform="matrix(0.9532 0.3025 -0.3025 0.9532 153.3294 -385.2554)">
		<stop  offset="0" style="stop-color:#2D8ACA"/>
		<stop  offset="1" style="stop-color:#61A7D6"/>
	</linearGradient>
	<circle fill="url(#SVGID_23_)" cx="378.354" cy="333.71" r="27.854"/>
	<path fill="none" stroke="#6269AB" stroke-width="2.1328" stroke-linecap="round" stroke-dasharray="2.1328,4.2657" d="
		M1.066,195.767c0,0,8.589-34.676,44.567-34.676c54.495,0,16.031,107.326,72.646,107.326c60.654,0,37.611-127.067,144.043-127.067
		c68.5,0,60.466,52.629,189.797,52.629"/>
	<g>
		<line fill="none" stroke="#61A7D6" stroke-width="2.1328" x1="409.097" y1="138.907" x2="436.075" y2="97.623"/>
		<line fill="none" stroke="#61A7D6" stroke-width="2.1328" x1="382.118" y1="91.726" x2="409.097" y2="138.907"/>
		<line fill="none" stroke="#61A7D6" stroke-width="2.1328" x1="355.138" y1="68.135" x2="382.118" y2="91.726"/>
		<line fill="none" stroke="#61A7D6" stroke-width="2.1328" x1="328.159" y1="103.521" x2="355.138" y2="68.135"/>
		<line fill="none" stroke="#61A7D6" stroke-width="2.1328" x1="301.181" y1="121.214" x2="328.159" y2="103.521"/>
		<line fill="none" stroke="#61A7D6" stroke-width="2.1328" x1="274.201" y1="103.521" x2="301.181" y2="121.214"/>
		<line fill="none" stroke="#61A7D6" stroke-width="2.1328" x1="247.221" y1="44.544" x2="274.201" y2="103.521"/>
		<line fill="none" stroke="#61A7D6" stroke-width="2.1328" x1="220.243" y1="85.828" x2="247.221" y2="44.544"/>
		<line fill="none" stroke="#61A7D6" stroke-width="2.1328" x1="193.263" y1="97.623" x2="220.243" y2="85.828"/>
		<circle fill="#2D368E" cx="193.265" cy="97.623" r="4.086"/>
		<circle fill="#2D368E" cx="220.242" cy="85.828" r="4.086"/>
		<circle fill="#388841" cx="247.222" cy="44.544" r="4.086"/>
		<circle fill="#2D368E" cx="274.201" cy="103.521" r="4.085"/>
		<circle fill="#2D368E" cx="301.181" cy="121.214" r="4.086"/>
		<circle fill="#2D368E" cx="328.159" cy="103.521" r="4.086"/>
		<circle fill="#2D368E" cx="355.139" cy="68.135" r="4.085"/>
		<circle fill="#2D368E" cx="382.117" cy="91.726" r="4.085"/>
		<circle fill="#DE322B" cx="409.097" cy="138.907" r="4.086"/>
		<circle fill="#2D368E" cx="436.076" cy="97.623" r="4.086"/>
	</g>
	<g>
		<g>
			<path fill="#2D8ACA" d="M125.633,20.854c-10.194-3.475-21.405-4.408-32.727-2.149c-11.255,2.245-21.198,7.36-29.253,14.414
				l41.72,47.522L125.633,20.854z"/>
			
				<linearGradient id="SVGID_24_" gradientUnits="userSpaceOnUse" x1="2393.7354" y1="2699.5493" x2="2393.7354" y2="2636.4028" gradientTransform="matrix(0.1956 0.9807 -0.9807 0.1956 2279.2908 -2821.5747)">
				<stop  offset="0" style="stop-color:#DE322B"/>
				<stop  offset="1" style="stop-color:#E76464"/>
			</linearGradient>
			<path fill="url(#SVGID_24_)" d="M105.62,80.921l61.738-12.315c-0.016-0.081-0.025-0.16-0.042-0.24
				c-4.575-22.939-21.03-40.472-41.684-47.513l-20.26,59.787L105.62,80.921z"/>
			<path fill="#2D8ACA" d="M167.358,68.606L105.62,80.921l41.492,47.264C163.388,113.806,171.822,91.435,167.358,68.606z"/>
			<path opacity="0.75" fill="#2D8ACA" d="M43.243,93.116c0.016,0.079,0.037,0.156,0.054,0.236l61.957-12.357l0.119-0.354
				l-41.72-47.522C47.186,47.54,38.654,70.107,43.243,93.116z"/>
			<path fill="#2D8ACA" d="M43.297,93.352c4.65,22.862,21.104,40.319,41.737,47.312l20.22-59.669L43.297,93.352z"/>
			<polygon fill="#429F8E" points="105.373,80.641 105.254,80.995 105.62,80.921 			"/>
			<path opacity="0.75" fill="#2D8ACA" d="M147.112,128.185L105.62,80.921l-0.366,0.073l-20.22,59.669
				c10.164,3.446,21.338,4.364,32.619,2.114C129.003,140.514,139.021,135.331,147.112,128.185z"/>
		</g>
		<polygon fill="#FFFFFF" points="145.894,46.833 130.786,49.312 141.149,61.39 		"/>
		<circle fill="#2D368E" cx="105.28" cy="80.742" r="41.102"/>
	</g>
</g>
</svg>
